<?xml version="1.0" standalone="no"?>
<!DOCTYPE svg PUBLIC "-//W3C//DTD SVG 20010904//EN"
 "http://www.w3.org/TR/2001/REC-SVG-20010904/DTD/svg10.dtd">
<svg version="1.0" xmlns="http://www.w3.org/2000/svg"
 width="500.000000pt" height="500.000000pt" viewBox="0 0 500.000000 500.000000"
 preserveAspectRatio="xMidYMid meet">
<metadata>
Created by potrace 1.15, written by Peter Selinger 2001-2017
</metadata>
<g transform="translate(0.000000,500.000000) scale(0.100000,-0.100000)"
fill="#000000" stroke="none">
<path d="M1720 3830 l-775 -448 -3 -201 c-2 -196 -2 -201 18 -201 19 0 20 6
20 189 l0 188 752 434 c414 239 760 434 768 433 9 0 354 -195 768 -433 413
-238 754 -433 759 -432 45 6 -49 66 -702 443 -390 225 -737 424 -770 442 l-60
33 -775 -447z"/>
<path d="M3083 3050 c-3 -10 -13 -18 -22 -17 -49 3 -207 -180 -343 -401 -34
-56 -40 -61 -90 -72 -69 -17 -98 -36 -98 -66 0 -26 7 -28 63 -15 28 7 37 6 33
-2 -82 -192 -90 -229 -57 -247 29 -15 49 -3 62 38 6 21 33 82 59 137 l46 100
85 13 c47 6 92 12 101 12 14 0 12 -18 -18 -131 -20 -72 -33 -133 -30 -136 13
-14 82 35 99 69 18 37 117 412 158 601 22 104 20 119 -22 130 -15 4 -23 0 -26
-13z m-77 -270 c-25 -89 -46 -163 -48 -164 -7 -5 -163 -24 -167 -20 -7 6 107
173 182 267 39 48 72 85 74 83 2 -2 -16 -76 -41 -166z"/>
<path d="M3689 2973 c-24 -6 -53 -74 -245 -571 -52 -133 -94 -255 -94 -271 0
-30 22 -57 38 -47 6 3 42 87 82 186 72 180 73 181 92 161 27 -29 58 -26 114
12 56 38 113 116 149 206 49 121 44 201 -14 201 -35 0 -111 -50 -146 -96 -15
-19 -29 -34 -31 -32 -2 3 16 51 41 109 55 128 57 152 14 142z m91 -232 c0 -45
-65 -164 -115 -210 -44 -41 -95 -56 -95 -28 0 19 112 187 154 231 40 43 56 45
56 7z"/>
<path d="M3282 2888 c-25 -32 -322 -798 -322 -832 0 -24 17 -46 36 -46 7 0 45
83 86 184 71 179 74 184 91 165 25 -27 68 -24 113 10 58 41 92 86 136 178 44
90 61 190 38 218 -31 38 -109 1 -183 -85 -20 -24 -37 -41 -37 -39 0 3 22 58
50 123 27 65 47 122 44 127 -8 13 -40 11 -52 -3z m108 -221 c0 -70 -100 -225
-158 -245 -50 -17 -59 0 -27 55 53 91 157 223 177 223 4 0 8 -15 8 -33z"/>
<path d="M1813 2848 c-5 -7 -21 -50 -36 -96 -29 -88 -196 -472 -206 -472 -3 0
-5 109 -3 241 l3 242 -43 -7 c-23 -4 -50 -14 -60 -23 -51 -46 -192 -357 -284
-627 -49 -143 -45 -169 19 -143 29 13 35 22 50 77 34 122 206 540 223 540 4 0
4 -83 0 -184 -4 -102 -4 -221 0 -266 l7 -81 41 3 c38 3 43 7 68 53 97 178 296
644 305 716 l6 39 -40 0 c-23 0 -45 -6 -50 -12z"/>
<path d="M2445 2640 c-15 -16 -16 -24 -6 -48 13 -31 3 -68 -44 -163 -31 -61
-124 -189 -138 -189 -11 0 -7 19 40 182 19 69 33 133 30 142 -16 41 -77 5
-135 -81 -25 -36 -20 -67 9 -60 23 6 23 12 -1 -75 -35 -125 -23 -188 35 -188
80 0 261 257 290 413 13 68 -39 112 -80 67z"/>
<path d="M1979 2520 c-48 -26 -112 -99 -146 -169 -38 -78 -45 -184 -13 -223
25 -32 73 -37 118 -14 122 63 256 351 188 402 -11 8 -28 12 -37 9 -10 -3 -20
-1 -24 5 -10 15 -46 11 -86 -10z m70 -67 c20 -18 20 -19 3 -69 -39 -111 -129
-225 -167 -210 -21 8 -19 65 6 131 19 50 108 165 129 165 4 0 17 -8 29 -17z"/>
<path d="M4020 1801 l0 -198 -752 -433 c-413 -239 -758 -434 -767 -434 -9 -1
-356 195 -771 434 -414 239 -756 434 -759 433 -33 -14 42 -63 599 -384 333
-193 678 -392 767 -444 l162 -93 780 450 781 451 0 209 c0 201 -1 208 -20 208
-19 0 -20 -7 -20 -199z"/>
</g>
</svg>
